<?xml version="1.0" encoding="utf-8"?>
<!-- Generator: Adobe Illustrator 24.3.0, SVG Export Plug-In . SVG Version: 6.00 Build 0)  -->
<svg version="1.1" id="レイヤー_1" xmlns="http://www.w3.org/2000/svg" xmlns:xlink="http://www.w3.org/1999/xlink" x="0px"
	 y="0px" viewBox="0 0 485 77.5" style="enable-background:new 0 0 485 77.5;" xml:space="preserve">
<style type="text/css">
	.st0{fill:#44403C;}
	.st1{fill:#EA580C;}
</style>
<g>
	<g>
		<path class="st0" d="M319.6,24.3h-10.7c-4.4,0-8,3.6-8,8v23c0,4.4,3.6,8,8,8h10.7c4.4,0,8-3.6,8-8v-23
			C327.5,27.8,324,24.3,319.6,24.3z M320.2,53c0,1.8-1.4,3.2-3.2,3.2h-5.6c-1.8,0-3.2-1.4-3.2-3.2V34.5c0-1.8,1.4-3.2,3.2-3.2h5.6
			c1.8,0,3.2,1.4,3.2,3.2V53z"/>
	</g>
</g>
<g>
	<g>
		<path class="st0" d="M187.5,24.3h-10.7c-4.4,0-8,3.6-8,8v23c0,4.4,3.6,8,8,8h17.8c0.5,0,0.8-0.4,0.8-0.8V32.2
			C195.5,27.8,191.9,24.3,187.5,24.3z M184.9,56.2h-5.6c-1.8,0-3.2-1.4-3.2-3.2V34.5c0-1.8,1.4-3.2,3.2-3.2h5.6
			c1.8,0,3.2,1.4,3.2,3.2V53C188.1,54.8,186.6,56.2,184.9,56.2z"/>
	</g>
</g>
<g>
	<g>
		<path class="st0" d="M291,11h-5.7c-0.5,0-0.8,0.4-0.8,0.8v12.5c-0.2,0-11.4,0-11.4,0c-4.4,0-8,3.6-8,8v23c0,4.4,3.6,8,8,8H291
			c0.5,0,0.8-0.4,0.8-0.8V11.8C291.9,11.3,291.5,11,291,11z M281.4,56.2h-5.6c-1.8,0-3.2-1.4-3.2-3.2V34.5c0-1.8,1.4-3.2,3.2-3.2
			h5.6c1.7,0,3.1,1.4,3.2,3.1V53C284.6,54.8,283.1,56.2,281.4,56.2z"/>
	</g>
</g>
<path class="st0" d="M390.2,63h5.7c0.5,0,0.8-0.4,0.8-0.8V34.6c0-1.8,1.4-3.2,3.2-3.2h5.6c1.8,0,3.2,1.4,3.2,3.2v27.6
	c0,0.5,0.4,0.8,0.8,0.8h5.7c0.5,0,0.8-0.4,0.8-0.8V32.2c-0.2-4.4-3.8-8-8.2-8h-17.9c-0.4,0-0.8,0.4-0.8,0.8v37.1
	C389.4,62.6,389.7,63,390.2,63z"/>
<g>
	<path class="st0" d="M151.9,24.3h-8c-2.7,0-5,1.7-5.8,3.6c-0.8-1.9-3.2-3.6-5.8-3.6h-15.1c-0.5,0-0.8,0.4-0.8,0.8v37.1
		c0,0.5,0.4,0.8,0.8,0.8h5.7c0.5,0,0.8-0.4,0.8-0.8V34.5c0-1.8,1.5-3.2,3.3-3.2h4.5c1.7,0,3.1,1.4,3.2,3.1v27.9
		c0,0.5,0.4,0.8,0.8,0.8l0,0h5.2l0,0c0.6,0,0.8-0.3,0.8-0.8V34.4c0.1-1.7,1.5-3.1,3.2-3.1h4.6c1.8,0,3.2,1.4,3.2,3.2v27.7
		c0,0.5,0.4,0.8,0.8,0.8h5.7c0.5,0,0.8-0.4,0.8-0.8V32.2C159.9,27.8,156.3,24.3,151.9,24.3z"/>
</g>
<path class="st0" d="M221.3,24.3h-15.6c-0.5,0-0.8,0.4-0.8,0.8v37.1c0,0.5,0.4,0.8,0.8,0.8h5.7c0.5,0,0.8-0.4,0.8-0.8V34.5
	c0-1.8,1.5-3.2,3.3-3.2h6c0.5,0,0.8-0.4,0.8-0.8v-5.3C222.4,24.6,222,24.3,221.3,24.3z"/>
<path class="st0" d="M250.6,43c3.6-1.1,6.1-4.5,6.1-8.3v-9.6c0-0.5-0.4-0.8-0.8-0.8h-5.7c-0.5,0-0.8,0.4-0.8,0.8v7.3
	c0,2.3-1.8,4-4,4h-7.8V11.9c0-0.5-0.4-0.8-0.8-0.8h-5.7c-0.5,0-0.8,0.4-0.8,0.8v50.3c0,0.5,0.4,0.8,0.8,0.8h5.7
	c0.5,0,0.8-0.4,0.8-0.8V43.5h5.8l6.2,18.7c0.1,0.5,0.4,0.8,0.8,0.8h5.6c0.6,0,0.9-0.5,0.9-0.9L250.6,43z"/>
<path class="st0" d="M379.2,24.3h-5.7c-0.5,0-0.8,0.4-0.8,0.8V53c0,1.8-1.4,3.2-3.2,3.2h-4.6c-1.8,0-3.2-1.4-3.2-3.2V25.1
	c0-0.5-0.4-0.8-0.8-0.8h-5.2c-0.5,0-0.8,0.4-0.8,0.8V53c0,1.8-1.4,3.2-3.2,3.2H347c-1.8,0-3.2-1.4-3.2-3.2V25.1
	c0-0.5-0.4-0.8-0.8-0.8h-5.7c-0.5,0-0.8,0.4-0.8,0.8v30.2c0.2,4.4,3.8,8,8.2,8h7.9c2.8,0,5-1.5,5.8-3.6c0.9,2.1,3.1,3.6,5.8,3.6h7.9
	c4.4,0,8-3.6,8-8V25.1C380.1,24.6,379.7,24.3,379.2,24.3z"/>
<g>
	<path class="st1" d="M451.6,52.8h-4.5c-0.4,0-0.8,0.3-0.8,0.8V55c0,1.5-1.2,2.2-2.6,2.2h-7.1c-1.5,0-2.6-1.2-2.6-2.6v-5.8h17.5
		c0.4,0,0.8-0.4,0.8-0.8V23.1c0-0.5-0.3-0.8-0.8-0.8H445v-7.6h6.5c0.4,0,0.8-0.3,0.8-0.8V9.3c0-0.4-0.3-0.8-0.8-0.8h-16.8h-0.1l0,0
		c-3.7,0-6.6,2.4-6.6,6.1v3.8c0,0.4,0.3,0.8,0.8,0.8h4.5c0.4,0,0.8-0.3,0.8-0.8V17c0-1.9,1.2-2.2,2.6-2.2h2.6v7.5h-10.3
		c-0.6,0-0.8,0.4-0.8,0.8v33.6c0,3.7,3,6.7,6.7,6.7h10.8c3.7,0,6.7-2.4,6.7-6.1v-3.7C452.3,53.2,452,52.8,451.6,52.8z M433.8,28.6
		h12.5v4h-12.5V28.6z M433.8,38.8h12.5v3.7h-12.5V38.8z"/>
	<path class="st1" d="M484.9,62.1l-6.9-8.9c0-8.2,0-28.7,0-28.7c0-0.4-0.4-0.8-0.8-0.8h-15v-6.4c0-1.5,1.2-2.6,2.7-2.6h14.5
		c0.4,0,0.8-0.3,0.8-0.8V9.3c0-0.4-0.3-0.8-0.8-0.8h-16.5c-3.7,0-6.7,3-6.7,5.6v47.1c0,1.4,0.4,1.8,0.8,1.8h4.4
		c0.4,0,0.8-0.4,0.8-0.8V42l9.9,12.4v0.5c0,1.3-1,1.9-2.3,2H467c-0.4,0-0.8,0.4-0.8,0.8v4.7c0,0.4,0.4,0.8,0.8,0.8h4.2
		c2.4,0,4.3-0.9,5.5-2.6l1.7,2.2c0.2,0.3,0.5,0.5,0.8,0.5h5.2C484.9,63,485.1,62.5,484.9,62.1z M462.2,30h9.9v1.8v12.7v1.2
		l-9.9-12.6V30z"/>
</g>
<g>
	<path class="st0" d="M46.7,50.8c5.5,0,7.4-5.7,12.2-5.9c7.1,0,8.8,8.6,18.4,8.6c7.2,0,16-5.9,16-19.2C93.2,16.7,81.1,0,69.2,0
		C63,0.1,59.7,2.5,56.3,5c-2.9,2-5.9,3.6-9.8,3.6l0,0l0,0l0,0l0,0c-3.9,0-6.9-1.5-9.8-3.6c-3.2-2.4-6.5-4.8-12.6-4.8
		C12.1,0.1,0,16.9,0,34.5c0,13.2,8.8,19,16,19c9.7,0,11.2-8.6,18.4-8.6C39.2,45.1,41.1,50.8,46.7,50.8L46.7,50.8z"/>
	<path class="st1" d="M62.8,57.7L47,62c-0.2,0-0.6,0-0.8,0l-15.8-4.3c-1.6-0.5-2.7,1.5-1.6,2.7L45.4,77c0.7,0.7,1.7,0.7,2.3,0
		l16.6-16.6C65.5,59.2,64.3,57.2,62.8,57.7z"/>
</g>
</svg>
