<?xml version="1.0" encoding="utf-8"?>
<!-- Generator: Adobe Illustrator 26.2.1, SVG Export Plug-In . SVG Version: 6.00 Build 0)  -->
<svg version="1.1" id="レイヤー_1" xmlns="http://www.w3.org/2000/svg" xmlns:xlink="http://www.w3.org/1999/xlink" x="0px"
	 y="0px" viewBox="0 0 558.2 82" style="enable-background:new 0 0 558.2 82;" xml:space="preserve">
<style type="text/css">
	.st0{fill:#44403C;}
	.st1{fill:#F87171;}
</style>
<g>
	<g>
		<path class="st0" d="M383.3,27.7h-11.4c-4.7,0-8.5,3.8-8.5,8.5v24.5c0,4.7,3.8,8.5,8.5,8.5h11.4c4.7,0,8.5-3.8,8.5-8.5V36.2
			C391.8,31.5,388,27.7,383.3,27.7z M384,58.3c0,1.9-1.5,3.4-3.4,3.4h-6c-1.9,0-3.4-1.5-3.4-3.4V38.6c0-1.9,1.5-3.4,3.4-3.4h6
			c1.9,0,3.4,1.5,3.4,3.4V58.3z"/>
	</g>
</g>
<g>
	<g>
		<path class="st0" d="M242.5,27.7h-11.4c-4.7,0-8.5,3.8-8.5,8.5v24.5c0,4.7,3.8,8.5,8.5,8.5h19c0.5,0,0.9-0.4,0.9-0.9V36.2
			C251,31.5,247.2,27.7,242.5,27.7z M239.8,61.7h-6c-1.9,0-3.4-1.5-3.4-3.4V38.6c0-1.9,1.5-3.4,3.4-3.4h6c1.9,0,3.4,1.5,3.4,3.4
			v19.7C243.2,60.2,241.6,61.7,239.8,61.7z"/>
	</g>
</g>
<g>
	<g>
		<path class="st0" d="M352.9,13.6h-6.1c-0.5,0-0.9,0.4-0.9,0.9v13.3c-0.2,0-12.1,0-12.1,0c-4.7,0-8.5,3.8-8.5,8.5v24.5
			c0,4.7,3.8,8.5,8.5,8.5h19c0.5,0,0.9-0.4,0.9-0.9v-54C353.8,13.9,353.4,13.6,352.9,13.6z M342.6,61.7h-6c-1.9,0-3.4-1.5-3.4-3.4
			V38.6c0-1.9,1.5-3.4,3.4-3.4h6c1.8,0,3.3,1.5,3.4,3.3v19.8C346,60.2,344.4,61.7,342.6,61.7z"/>
	</g>
</g>
<path class="st0" d="M458.6,69h6.1c0.5,0,0.9-0.4,0.9-0.9V38.7c0-1.9,1.5-3.4,3.4-3.4h6c1.9,0,3.4,1.5,3.4,3.4v29.4
	c0,0.5,0.4,0.9,0.9,0.9h6.1c0.5,0,0.9-0.4,0.9-0.9V36.2c-0.2-4.7-4-8.5-8.7-8.5h-19.1c-0.4,0-0.8,0.4-0.8,0.8v39.6
	C457.7,68.6,458.1,69,458.6,69z"/>
<g>
	<path class="st0" d="M204.6,27.7h-8.5c-2.9,0-5.3,1.8-6.2,3.8c-0.9-2-3.4-3.8-6.2-3.8h-16.1c-0.5,0-0.9,0.4-0.9,0.9v39.5
		c0,0.5,0.4,0.9,0.9,0.9h6.1c0.5,0,0.9-0.4,0.9-0.9V38.6c0-1.9,1.6-3.4,3.5-3.4h4.8c1.8,0,3.3,1.5,3.4,3.3v29.7
		c0,0.5,0.4,0.8,0.9,0.8l0,0h5.5l0,0c0.6,0,0.9-0.3,0.9-0.8V38.5c0.1-1.8,1.6-3.3,3.4-3.3h4.9c1.9,0,3.4,1.5,3.4,3.4v29.5
		c0,0.5,0.4,0.9,0.9,0.9h6.1c0.5,0,0.9-0.4,0.9-0.9V36.2C213.1,31.5,209.3,27.7,204.6,27.7z"/>
</g>
<path class="st0" d="M278.5,27.7h-16.6c-0.5,0-0.9,0.4-0.9,0.9v39.5c0,0.5,0.4,0.9,0.9,0.9h6.1c0.5,0,0.9-0.4,0.9-0.9V38.6
	c0-1.9,1.6-3.4,3.5-3.4h6.4c0.5,0,0.9-0.4,0.9-0.9v-5.6C279.7,28.1,279.3,27.7,278.5,27.7z"/>
<path class="st0" d="M309.8,47.7c3.8-1.2,6.5-4.8,6.5-8.9V28.6c0-0.5-0.4-0.9-0.9-0.9h-6.1c-0.5,0-0.9,0.4-0.9,0.9v7.8
	c0,2.4-1.9,4.3-4.3,4.3h-8.3V14.5c0-0.5-0.4-0.9-0.9-0.9h-6.1c-0.5,0-0.9,0.4-0.9,0.9v53.6c0,0.5,0.4,0.9,0.9,0.9h6.1
	c0.5,0,0.9-0.4,0.9-0.9V48.2h6.2l6.6,19.9c0.1,0.5,0.4,0.9,0.9,0.9h6c0.6,0,1-0.5,1-1L309.8,47.7z"/>
<path class="st0" d="M446.9,27.7h-6.1c-0.5,0-0.9,0.4-0.9,0.9v29.7c0,1.9-1.5,3.4-3.4,3.4h-4.9c-1.9,0-3.4-1.5-3.4-3.4V28.6
	c0-0.5-0.4-0.9-0.9-0.9h-5.5c-0.5,0-0.9,0.4-0.9,0.9v29.7c0,1.9-1.5,3.4-3.4,3.4h-4.9c-1.9,0-3.4-1.5-3.4-3.4V28.6
	c0-0.5-0.4-0.9-0.9-0.9h-6.1c-0.5,0-0.9,0.4-0.9,0.9v32.2c0.2,4.7,4,8.5,8.7,8.5h8.4c3,0,5.3-1.6,6.2-3.8c1,2.2,3.3,3.8,6.2,3.8h8.4
	c4.7,0,8.5-3.8,8.5-8.5V28.6C447.8,28.1,447.4,27.7,446.9,27.7z"/>
<path class="st1" d="M71.1,77.8c8.4,0,11.5-8.8,18.7-8.9c10.9,0,13.3,13.1,28,13.1c11.1,0,24.4-9,24.4-29.3
	c0-27-18.4-52.8-36.7-52.8C96.2,0,91,3.7,86,7.4c-4.4,3.2-8.9,5.4-15,5.4l0,0l0,0c0,0,0,0,0,0l0,0c-6,0-10.6-2.2-15-5.4
	C51.2,3.7,46,0,36.7,0C18.4,0,0,25.8,0,52.8C0,73,13.3,82,24.4,82c14.7,0,17.1-13.1,28-13.1C59.6,69,62.7,77.8,71.1,77.8L71.1,77.8z
	"/>
<g>
	<path class="st0" d="M522.6,58.1h-4.8c-0.4,0-0.8,0.3-0.8,0.8v1.6c0,1.6-1.3,2.3-2.8,2.3h-7.6c-1.6,0-2.8-1.3-2.8-2.8v-6.2h18.7
		c0.4,0,0.8-0.4,0.8-0.8V26.5c0-0.5-0.3-0.8-0.8-0.8h-6.9v-8.1h6.9c0.4,0,0.8-0.3,0.8-0.8v-5.1c0-0.4-0.3-0.8-0.8-0.8h-17.9h-0.1
		l0,0c-3.9,0-7,2.6-7,6.5v4c0,0.4,0.3,0.8,0.8,0.8h4.8c0.4,0,0.8-0.3,0.8-0.8v-1.5c0-2,1.3-2.3,2.8-2.3h2.8v8h-11
		c-0.6,0-0.8,0.4-0.8,0.8v35.8c0,3.9,3.2,7.1,7.1,7.1h11.5c3.9,0,7.1-2.6,7.1-6.5v-3.9C523.4,58.5,523.1,58.1,522.6,58.1z
		 M503.7,32.3H517v4.3h-13.3V32.3z M503.7,43.2H517v3.9h-13.3V43.2z"/>
	<path class="st0" d="M558.1,68l-7.4-9.5c0-8.7,0-30.6,0-30.6c0-0.4-0.4-0.8-0.8-0.8h-16v-6.8c0-1.6,1.3-2.8,2.9-2.8h15.5
		c0.4,0,0.8-0.3,0.8-0.8v-5c0-0.4-0.3-0.8-0.8-0.8h-17.6c-3.9,0-7.1,3.2-7.1,6v50.2c0,1.5,0.4,1.9,0.8,1.9h4.7
		c0.4,0,0.8-0.4,0.8-0.8V46.6l10.5,13.2v0.5c0,1.4-1.1,2-2.5,2.1h-2.8c-0.4,0-0.8,0.4-0.8,0.8v5c0,0.4,0.4,0.8,0.8,0.8h4.5
		c2.6,0,4.6-1,5.9-2.8l1.8,2.3c0.2,0.3,0.5,0.5,0.9,0.5h5.5C558.1,69,558.4,68.4,558.1,68z M533.9,33.8h10.5v1.9v13.5v1.3
		l-10.5-13.4V33.8z"/>
</g>
</svg>
