<?xml version="1.0" encoding="utf-8"?>
<!-- Generator: Adobe Illustrator 24.3.0, SVG Export Plug-In . SVG Version: 6.00 Build 0)  -->
<svg version="1.1" id="レイヤー_1" xmlns="http://www.w3.org/2000/svg" xmlns:xlink="http://www.w3.org/1999/xlink" x="0px"
	 y="0px" viewBox="0 0 311.9 188.2" style="enable-background:new 0 0 311.9 188.2;" xml:space="preserve">
<style type="text/css">
	.st0{fill:#44403C;}
	.st1{fill:#EA580C;}
</style>
<g>
	<g>
		<g>
			<path class="st0" d="M171.9,155h-9.1c-3.7,0-6.8,3-6.8,6.8v19.5c0,3.7,3,6.8,6.8,6.8h9.1c3.7,0,6.8-3,6.8-6.8v-19.5
				C178.6,158,175.7,155,171.9,155z M172.4,179.3c0,1.5-1.2,2.7-2.7,2.7H165c-1.5,0-2.7-1.2-2.7-2.7v-15.7c0-1.5,1.2-2.7,2.7-2.7
				h4.7c1.5,0,2.7,1.2,2.7,2.7V179.3z"/>
		</g>
	</g>
	<g>
		<g>
			<path class="st0" d="M60.2,155h-9.1c-3.7,0-6.8,3-6.8,6.8v19.5c0,3.7,3,6.8,6.8,6.8h15.1c0.4,0,0.7-0.3,0.7-0.7v-25.6
				C66.9,158,63.9,155,60.2,155z M58,182h-4.7c-1.5,0-2.7-1.2-2.7-2.7v-15.7c0-1.5,1.2-2.7,2.7-2.7H58c1.5,0,2.7,1.2,2.7,2.7v15.7
				C60.7,180.8,59.4,182,58,182z"/>
		</g>
	</g>
	<g>
		<g>
			<path class="st0" d="M147.7,143.8h-4.8c-0.4,0-0.7,0.3-0.7,0.7v10.6c-0.2,0-9.6,0-9.6,0c-3.7,0-6.8,3-6.8,6.8v19.5
				c0,3.7,3,6.8,6.8,6.8h15.1c0.4,0,0.7-0.3,0.7-0.7v-42.9C148.5,144,148.2,143.8,147.7,143.8z M139.6,182h-4.7
				c-1.5,0-2.7-1.2-2.7-2.7v-15.7c0-1.5,1.2-2.7,2.7-2.7h4.7c1.4,0,2.6,1.2,2.7,2.6v15.7C142.3,180.8,141.1,182,139.6,182z"/>
		</g>
	</g>
	<path class="st0" d="M231.7,187.8h4.8c0.4,0,0.7-0.3,0.7-0.7v-23.4c0-1.5,1.2-2.7,2.7-2.7h4.7c1.5,0,2.7,1.2,2.7,2.7v23.4
		c0,0.4,0.3,0.7,0.7,0.7h4.8c0.4,0,0.7-0.3,0.7-0.7v-25.4c-0.2-3.7-3.2-6.8-6.9-6.8h-15.1c-0.3,0-0.7,0.3-0.7,0.7V187
		C231,187.4,231.2,187.8,231.7,187.8z"/>
	<g>
		<path class="st0" d="M30,155h-6.8c-2.3,0-4.2,1.4-4.9,3c-0.7-1.6-2.7-3-4.9-3H0.7c-0.4,0-0.7,0.3-0.7,0.7v31.4
			c0,0.4,0.3,0.7,0.7,0.7h4.8c0.4,0,0.7-0.3,0.7-0.7v-23.4c0-1.5,1.3-2.7,2.8-2.7h3.8c1.4,0,2.6,1.2,2.7,2.6v23.6
			c0,0.4,0.3,0.7,0.7,0.7l0,0h4.4l0,0c0.5,0,0.7-0.3,0.7-0.7v-23.6c0.1-1.4,1.3-2.6,2.7-2.6h3.9c1.5,0,2.7,1.2,2.7,2.7v23.4
			c0,0.4,0.3,0.7,0.7,0.7h4.8c0.4,0,0.7-0.3,0.7-0.7v-25.4C36.8,158,33.8,155,30,155z"/>
	</g>
	<path class="st0" d="M88.8,155H75.6c-0.4,0-0.7,0.3-0.7,0.7v31.4c0,0.4,0.3,0.7,0.7,0.7h4.8c0.4,0,0.7-0.3,0.7-0.7v-23.4
		c0-1.5,1.3-2.7,2.8-2.7H89c0.4,0,0.7-0.3,0.7-0.7v-4.5C89.7,155.3,89.4,155,88.8,155z"/>
	<path class="st0" d="M113.6,170.8c3-0.9,5.2-3.8,5.2-7v-8.1c0-0.4-0.3-0.7-0.7-0.7h-4.8c-0.4,0-0.7,0.3-0.7,0.7v6.2
		c0,1.9-1.5,3.4-3.4,3.4h-6.6v-20.7c0-0.4-0.3-0.7-0.7-0.7h-4.8c-0.4,0-0.7,0.3-0.7,0.7v42.5c0,0.4,0.3,0.7,0.7,0.7h4.8
		c0.4,0,0.7-0.3,0.7-0.7v-15.8h4.9l5.2,15.8c0.1,0.4,0.3,0.7,0.7,0.7h4.7c0.5,0,0.8-0.4,0.8-0.8L113.6,170.8z"/>
	<path class="st0" d="M222.4,155h-4.9c-0.4,0-0.7,0.3-0.7,0.7v23.6c0,1.5-1.2,2.7-2.7,2.7h-3.9c-1.5,0-2.7-1.2-2.7-2.7v-23.6
		c0-0.4-0.3-0.7-0.7-0.7h-4.3c-0.4,0-0.7,0.3-0.7,0.7v23.6c0,1.5-1.2,2.7-2.7,2.7h-4c-1.5,0-2.7-1.2-2.7-2.7v-23.6
		c0-0.4-0.3-0.7-0.7-0.7h-4.8c-0.4,0-0.7,0.3-0.7,0.7v25.6c0.2,3.7,3.2,6.8,6.9,6.8h6.7c2.4,0,4.2-1.3,4.9-3c0.8,1.8,2.6,3,4.9,3
		h6.7c3.7,0,6.8-3,6.8-6.8v-25.6C223.1,155.3,222.8,155,222.4,155z"/>
	<g>
		<path class="st1" d="M283.6,179.1h-3.8c-0.3,0-0.7,0.3-0.7,0.7v1.2c0,1.3-1,1.9-2.2,1.9h-6c-1.3,0-2.2-1-2.2-2.2v-4.9h14.8
			c0.3,0,0.7-0.3,0.7-0.7V154c0-0.4-0.3-0.7-0.7-0.7H278v-6.4h5.5c0.3,0,0.7-0.3,0.7-0.7v-3.9c0-0.3-0.3-0.7-0.7-0.7h-14.2h-0.1l0,0
			c-3.1,0-5.6,2-5.6,5.2v3.2c0,0.3,0.3,0.7,0.7,0.7h3.8c0.3,0,0.7-0.3,0.7-0.7v-1.2c0-1.6,1-1.9,2.2-1.9h2.2v6.3h-8.7
			c-0.5,0-0.7,0.3-0.7,0.7v28.4c0,3.1,2.5,5.7,5.7,5.7h9.1c3.1,0,5.7-2,5.7-5.2v-3.1C284.2,179.5,284,179.1,283.6,179.1z
			 M268.6,158.7h10.6v3.4h-10.6V158.7z M268.6,167.3h10.6v3.1h-10.6V167.3z"/>
		<path class="st1" d="M311.8,187l-5.8-7.5c0-6.9,0-24.3,0-24.3c0-0.3-0.3-0.7-0.7-0.7h-12.7v-5.4c0-1.3,1-2.2,2.3-2.2h12.3
			c0.3,0,0.7-0.3,0.7-0.7v-3.9c0-0.3-0.3-0.7-0.7-0.7h-14c-3.1,0-5.7,2.5-5.7,4.7v39.9c0,1.2,0.3,1.5,0.7,1.5h3.7
			c0.3,0,0.7-0.3,0.7-0.7v-17.1l8.4,10.5v0.4c0,1.1-0.8,1.6-1.9,1.7h-2.4c-0.3,0-0.7,0.3-0.7,0.7v4c0,0.3,0.3,0.7,0.7,0.7h3.6
			c2,0,3.6-0.8,4.7-2.2l1.4,1.9c0.2,0.3,0.4,0.4,0.7,0.4h4.4C311.8,187.8,312,187.3,311.8,187z M292.6,159.8h8.4v1.5v10.8v1
			l-8.4-10.7V159.8z"/>
	</g>
</g>
<g>
	<path class="st0" d="M153.2,76.9c8.3,0,11.2-8.6,18.5-8.9c10.7,0,13.3,13,27.8,13c10.9,0,24.2-8.9,24.2-29.1
		C223.5,25.3,205.2,0,187.2,0c-9.4,0.2-14.4,3.8-19.5,7.6c-4.4,3-8.9,5.4-14.8,5.4l0,0l0,0l0,0l0,0c-5.9,0-10.4-2.3-14.8-5.4
		c-4.8-3.6-9.8-7.3-19.1-7.3c-18.2-0.2-36.5,25.3-36.5,51.9c0,20,13.3,28.8,24.2,28.8c14.7,0,17-13,27.8-13
		C141.8,68.2,144.7,76.9,153.2,76.9L153.2,76.9z"/>
	<path class="st1" d="M177.5,87.3l-23.9,6.5c-0.3,0-0.9,0-1.2,0l-23.9-6.5c-2.4-0.8-4.1,2.3-2.4,4.1l25.1,25.1
		c1.1,1.1,2.6,1.1,3.5,0l25.1-25.1C181.6,89.6,179.8,86.6,177.5,87.3z"/>
</g>
</svg>
