<?xml version="1.0" encoding="utf-8"?>
<!-- Generator: Adobe Illustrator 26.2.1, SVG Export Plug-In . SVG Version: 6.00 Build 0)  -->
<svg version="1.1" id="レイヤー_1" xmlns="http://www.w3.org/2000/svg" xmlns:xlink="http://www.w3.org/1999/xlink" x="0px"
	 y="0px" viewBox="0 0 320 250" style="enable-background:new 0 0 320 250;" xml:space="preserve">
<style type="text/css">
	.st0{fill:#44403C;}
	.st1{fill:#EA580C;}
</style>
<path class="st0" d="M160.2,170.1c17.6,0,23.9-18.2,39.3-18.8c22.7,0,28.3,27.8,59.1,27.8c23.1,0,51.4-18.8,51.4-62
	C309.6,60.3,270.7,6.5,232.5,6.5c-20,0.4-30.5,8.1-41.5,16.2c-9.4,6.5-18.8,11.5-31.3,11.5l0,0l0,0l0,0l0,0
	c-12.5,0-22.1-4.9-31.3-11.5c-10.1-7.7-20.9-15.6-40.7-15.6C48.8,6.7,10,60.9,10,117.4c0,42.5,28.3,61.2,51.4,61.2
	c31.1,0,36.2-27.8,59.1-27.8C135.8,151.4,142,170.1,160.2,170.1L160.2,170.1z"/>
<path class="st1" d="M206.2,186l-46,12.5c-0.6,0-1.8,0-2.2,0L112,186c-4.7-1.6-7.9,4.5-4.7,7.9l48.1,48.1c2,2,5.1,2,6.7,0l48.1-48.1
	C214,190.5,210.5,184.6,206.2,186z"/>
</svg>
