<?xml version="1.0" encoding="utf-8"?>
<!-- Generator: Adobe Illustrator 26.2.1, SVG Export Plug-In . SVG Version: 6.00 Build 0)  -->
<svg version="1.1" id="レイヤー_1" xmlns="http://www.w3.org/2000/svg" xmlns:xlink="http://www.w3.org/1999/xlink" x="0px"
	 y="0px" viewBox="0 0 1200 630" style="enable-background:new 0 0 1200 630;" xml:space="preserve">
<style type="text/css">
	.st0{fill:#FFF7ED;}
	.st1{fill:#44403C;}
	.st2{fill:#EA580C;}
</style>
<rect class="st0" width="1200" height="630"/>
<g>
	<g>
		<g>
			<g>
				<path class="st1" d="M625.8,428.3h-16.1c-6.5,0-12,5.3-12,12v34.4c0,6.5,5.3,12,12,12h16.1c6.5,0,12-5.3,12-12v-34.4
					C637.6,433.6,632.5,428.3,625.8,428.3z M626.6,471.3c0,2.6-2,4.7-4.7,4.7h-8.3c-2.6,0-4.7-2-4.7-4.7v-27.7c0-2.6,2-4.7,4.7-4.7
					h8.3c2.6,0,4.7,2,4.7,4.7V471.3z"/>
			</g>
		</g>
		<g>
			<g>
				<path class="st1" d="M438.6,428.3h-16.1c-6.5,0-12,5.3-12,12v34.4c0,6.5,5.3,12,12,12h26.7c0.6,0,1.2-0.6,1.2-1.2v-45.2
					C450.4,433.6,445.1,428.3,438.6,428.3z M434.7,476h-8.3c-2.6,0-4.7-2-4.7-4.7v-27.7c0-2.6,2-4.7,4.7-4.7h8.3
					c2.6,0,4.7,2,4.7,4.7v27.7C439.4,473.9,437.2,476,434.7,476z"/>
			</g>
		</g>
		<g>
			<g>
				<path class="st1" d="M585.7,408.6h-8.5c-0.6,0-1.2,0.6-1.2,1.2v18.7c-0.4,0-16.9,0-16.9,0c-6.5,0-12,5.3-12,12V475
					c0,6.5,5.3,12,12,12h26.7c0.6,0,1.2-0.6,1.2-1.2v-75.5C587.1,409,586.5,408.6,585.7,408.6z M571.5,476h-8.3
					c-2.6,0-4.7-2-4.7-4.7v-27.7c0-2.6,2-4.7,4.7-4.7h8.3c2.4,0,4.7,2,4.7,4.7v27.7C576.2,473.9,574.1,476,571.5,476z"/>
			</g>
		</g>
		<path class="st1" d="M726.1,486.1h8.5c0.6,0,1.2-0.6,1.2-1.2v-41.3c0-2.6,2-4.7,4.7-4.7h8.3c2.6,0,4.7,2,4.7,4.7v41.3
			c0,0.6,0.6,1.2,1.2,1.2h8.5c0.6,0,1.2-0.6,1.2-1.2v-44.8c-0.4-6.5-5.7-12-12.2-12h-26.7c-0.6,0-1.2,0.6-1.2,1.2v55.4
			C724.9,485.5,725.3,486.1,726.1,486.1z"/>
		<g>
			<path class="st1" d="M387.7,428.3h-12c-4.1,0-7.3,2.4-8.5,5.3c-1.2-2.8-4.7-5.3-8.5-5.3h-22.4c-0.6,0-1.2,0.6-1.2,1.2v55.4
				c0,0.6,0.6,1.2,1.2,1.2h8.5c0.6,0,1.2-0.6,1.2-1.2v-41.3c0-2.6,2.2-4.7,4.9-4.7h6.7c2.4,0,4.7,2,4.7,4.7v41.5
				c0,0.6,0.6,1.2,1.2,1.2l0,0h7.7l0,0c0.8,0,1.2-0.6,1.2-1.2v-41.5c0.2-2.4,2.2-4.7,4.7-4.7h6.9c2.6,0,4.7,2,4.7,4.7v41.3
				c0,0.6,0.6,1.2,1.2,1.2h8.5c0.6,0,1.2-0.6,1.2-1.2v-44.8C399.7,433.6,394.4,428.3,387.7,428.3z"/>
		</g>
		<path class="st1" d="M488.8,428.3h-25.6c-0.6,0-1.2,0.6-1.2,1.2v55.4c0,0.6,0.6,1.2,1.2,1.2h8.5c0.6,0,1.2-0.6,1.2-1.2v-41.3
			c0-2.6,2.2-4.7,4.9-4.7h11.4c0.6,0,1.2-0.6,1.2-1.2v-7.9C490.5,429,489.9,428.3,488.8,428.3z"/>
		<path class="st1" d="M528.1,456.2c5.3-1.6,9.2-6.7,9.2-12.4v-14.2c0-0.6-0.6-1.2-1.2-1.2h-8.5c-0.6,0-1.2,0.6-1.2,1.2v11
			c0,3.3-2.6,5.9-5.9,5.9h-11.6V410c0-0.6-0.6-1.2-1.2-1.2H499c-0.6,0-1.2,0.6-1.2,1.2v74.9c0,0.6,0.6,1.2,1.2,1.2h8.5
			c0.6,0,1.2-0.6,1.2-1.2V457h8.5l9.2,27.9c0.2,0.6,0.6,1.2,1.2,1.2h8.3c0.8,0,1.4-0.6,1.4-1.4L528.1,456.2z"/>
		<path class="st1" d="M712.3,428.3h-8.5c-0.6,0-1.2,0.6-1.2,1.2v41.5c0,2.6-2,4.7-4.7,4.7h-6.9c-2.6,0-4.7-2-4.7-4.7v-41.5
			c0-0.6-0.6-1.2-1.2-1.2h-7.7c-0.6,0-1.2,0.6-1.2,1.2v41.5c0,2.6-2,4.7-4.7,4.7h-7.1c-2.6,0-4.7-2-4.7-4.7v-41.5
			c0-0.6-0.6-1.2-1.2-1.2h-8.5c-0.6,0-1.2,0.6-1.2,1.2v45.2c0.4,6.5,5.7,12,12.2,12h11.8c4.3,0,7.3-2.2,8.5-5.3
			c1.4,3.3,4.7,5.3,8.5,5.3h11.8c6.5,0,12-5.3,12-12v-45.2C713.5,429,713.1,428.3,712.3,428.3z"/>
		<g>
			<path class="st2" d="M815.3,470.9h-6.7c-0.6,0-1.2,0.6-1.2,1.2v2c0,2.2-1.8,3.3-3.9,3.3h-10.6c-2.2,0-3.9-1.8-3.9-3.9V465h26
				c0.6,0,1.2-0.6,1.2-1.2v-37.2c0-0.6-0.6-1.2-1.2-1.2h-9.8v-11.2h9.8c0.6,0,1.2-0.6,1.2-1.2V406c0-0.6-0.6-1.2-1.2-1.2h-25h-0.2
				l0,0c-5.5,0-9.8,3.5-9.8,9.2v5.7c0,0.6,0.6,1.2,1.2,1.2h6.7c0.6,0,1.2-0.6,1.2-1.2v-2c0-2.8,1.8-3.3,3.9-3.3h3.9v11.2h-15.3
				c-0.8,0-1.2,0.6-1.2,1.2v50.1c0,5.5,4.5,10,10,10h16.1c5.5,0,10-3.5,10-9.2v-5.5C816.3,471.7,815.9,470.9,815.3,470.9z
				 M788.8,434.9h18.7v5.9h-18.7V434.9z M788.8,450.1h18.7v5.5h-18.7V450.1z"/>
			<path class="st2" d="M864.9,484.9l-10.2-13.2c0-12.2,0-42.7,0-42.7c0-0.6-0.6-1.2-1.2-1.2h-22.4v-9.6c0-2.2,1.8-3.9,4.1-3.9h20.3
				c0.6,0,1.2-0.6,1.2-1.2v-6.9c0-0.6-0.6-1.2-1.2-1.2h-23.4c-5.5,0-10,4.5-10,8.3v70.4c0,2,0.6,2.6,1.2,2.6h6.5
				c0.6,0,1.2-0.6,1.2-1.2V455l14.9,18.5v0.6c0,2-1.4,2.8-3.3,3.1h-4.3c-0.6,0-1.2,0.6-1.2,1.2v7.1c0,0.6,0.6,1.2,1.2,1.2h6.3
				c3.5,0,6.3-1.4,8.3-3.9l2.4,3.3c0.4,0.6,0.6,0.6,1.2,0.6h7.7C864.9,486.1,865.1,485.3,864.9,484.9z M831.1,436.9H846v2.6v19.1
				v1.8l-14.9-18.9L831.1,436.9L831.1,436.9z"/>
		</g>
	</g>
	<g>
		<path class="st1" d="M594.5,307.5c17.7,0,24-18.3,39.5-18.9c22.8,0,28.5,27.9,59.4,27.9c23.2,0,51.7-18.9,51.7-62.3
			c-0.4-57-39.5-111.1-77.9-111.1c-20.1,0.4-30.7,8.1-41.7,16.3c-9.4,6.5-18.9,11.6-31.5,11.6l0,0l0,0l0,0l0,0
			c-12.6,0-22.2-4.9-31.5-11.6c-10.2-7.7-21-15.7-40.9-15.7c-39.1-0.4-78.1,54.1-78.1,110.9c0,42.7,28.5,61.5,51.7,61.5
			c31.3,0,36.4-27.9,59.4-27.9C570,288.7,576.2,307.5,594.5,307.5L594.5,307.5z"/>
		<path class="st2" d="M640.7,323.5l-46.2,12.6c-0.6,0-1.8,0-2.2,0L546,323.5c-4.7-1.6-7.9,4.5-4.7,7.9l48.4,48.4c2,2,5.1,2,6.7,0
			l48.4-48.4C648.6,328,645.1,322.1,640.7,323.5z"/>
	</g>
</g>
</svg>
