<?xml version="1.0" encoding="utf-8"?>
<!-- Generator: Adobe Illustrator 26.2.1, SVG Export Plug-In . SVG Version: 6.00 Build 0)  -->
<svg version="1.1" id="レイヤー_1" xmlns="http://www.w3.org/2000/svg" xmlns:xlink="http://www.w3.org/1999/xlink" x="0px"
	 y="0px" viewBox="0 0 192 40" style="enable-background:new 0 0 192 40;" xml:space="preserve">
<style type="text/css">
	.st0{fill:#44403C;}
	.st1{fill:#EA580C;}
</style>
<g>
	<g>
		<g>
			<g>
				<path class="st0" d="M127.7,13.9h-4.2c-1.7,0-3.2,1.4-3.2,3.2v9.1c0,1.7,1.4,3.2,3.2,3.2h4.2c1.7,0,3.2-1.4,3.2-3.2v-9.1
					C130.8,15.3,129.5,13.9,127.7,13.9z M127.9,25.2c0,0.7-0.6,1.3-1.3,1.3h-2.2c-0.7,0-1.3-0.6-1.3-1.3v-7.3c0-0.7,0.6-1.3,1.3-1.3
					h2.2c0.7,0,1.3,0.6,1.3,1.3V25.2z"/>
			</g>
		</g>
		<g>
			<g>
				<path class="st0" d="M78.1,13.9h-4.2c-1.7,0-3.2,1.4-3.2,3.2v9.1c0,1.7,1.4,3.2,3.2,3.2h7c0.2,0,0.3-0.1,0.3-0.3V17.1
					C81.3,15.3,79.9,13.9,78.1,13.9z M77.1,26.5h-2.2c-0.7,0-1.3-0.6-1.3-1.3v-7.3c0-0.7,0.6-1.3,1.3-1.3h2.2c0.7,0,1.3,0.6,1.3,1.3
					v7.3C78.4,25.9,77.8,26.5,77.1,26.5z"/>
			</g>
		</g>
		<g>
			<g>
				<path class="st0" d="M117.1,8.7h-2.2c-0.2,0-0.3,0.1-0.3,0.3V14c-0.1,0-4.5,0-4.5,0c-1.7,0-3.2,1.4-3.2,3.2v9.1
					c0,1.7,1.4,3.2,3.2,3.2h7c0.2,0,0.3-0.1,0.3-0.3v-20C117.5,8.8,117.3,8.7,117.1,8.7z M113.3,26.5h-2.2c-0.7,0-1.3-0.6-1.3-1.3
					v-7.3c0-0.7,0.6-1.3,1.3-1.3h2.2c0.7,0,1.2,0.6,1.3,1.2v7.3C114.6,25.9,114,26.5,113.3,26.5z"/>
			</g>
		</g>
		<path class="st0" d="M154.3,29.2h2.2c0.2,0,0.3-0.1,0.3-0.3V18c0-0.7,0.6-1.3,1.3-1.3h2.2c0.7,0,1.3,0.6,1.3,1.3v10.9
			c0,0.2,0.1,0.3,0.3,0.3h2.2c0.2,0,0.3-0.1,0.3-0.3V17c-0.1-1.7-1.5-3.2-3.2-3.2h-7c-0.1,0-0.3,0.1-0.3,0.3v14.6
			C153.9,29,154,29.2,154.3,29.2z"/>
		<g>
			<path class="st0" d="M64.7,13.9h-3.2c-1.1,0-2,0.7-2.3,1.4c-0.3-0.7-1.3-1.4-2.3-1.4H51c-0.2,0-0.3,0.1-0.3,0.3v14.6
				c0,0.2,0.1,0.3,0.3,0.3h2.2c0.2,0,0.3-0.1,0.3-0.3V18c0-0.7,0.6-1.3,1.3-1.3h1.8c0.7,0,1.2,0.6,1.3,1.2v11c0,0.2,0.1,0.3,0.3,0.3
				l0,0h2.1l0,0c0.2,0,0.3-0.1,0.3-0.3v-11c0-0.7,0.6-1.2,1.3-1.2h1.8c0.7,0,1.3,0.6,1.3,1.3v10.9c0,0.2,0.1,0.3,0.3,0.3h2.2
				c0.2,0,0.3-0.1,0.3-0.3V17C67.9,15.3,66.5,13.9,64.7,13.9z"/>
		</g>
		<path class="st0" d="M91.5,13.9h-6.8c-0.2,0-0.3,0.1-0.3,0.3v14.6c0,0.2,0.1,0.3,0.3,0.3h2.2c0.2,0,0.3-0.1,0.3-0.3V18
			c0-0.7,0.6-1.3,1.3-1.3h3c0.2,0,0.3-0.1,0.3-0.3v-2.1C91.9,14.1,91.7,13.9,91.5,13.9z"/>
		<path class="st0" d="M101.8,21.3c1.4-0.4,2.4-1.8,2.4-3.3v-3.8c0-0.2-0.1-0.3-0.3-0.3h-2.2c-0.2,0-0.3,0.1-0.3,0.3v2.9
			c0,0.9-0.7,1.6-1.6,1.6h-3.1V9.1c0-0.2-0.1-0.3-0.3-0.3h-2.2c-0.2,0-0.3,0.1-0.3,0.3v19.8c0,0.2,0.1,0.3,0.3,0.3h2.2
			c0.2,0,0.3-0.1,0.3-0.3v-7.4H99l2.4,7.4c0,0.2,0.1,0.3,0.3,0.3h2.2c0.2,0,0.4-0.2,0.4-0.4L101.8,21.3z"/>
		<path class="st0" d="M150.6,13.9h-2.3c-0.2,0-0.3,0.1-0.3,0.3v11c0,0.7-0.6,1.3-1.3,1.3h-1.8c-0.7,0-1.3-0.6-1.3-1.3v-11
			c0-0.2-0.1-0.3-0.3-0.3h-2c-0.2,0-0.3,0.1-0.3,0.3v11c0,0.7-0.6,1.3-1.3,1.3h-1.9c-0.7,0-1.3-0.6-1.3-1.3v-11
			c0-0.2-0.1-0.3-0.3-0.3H134c-0.2,0-0.3,0.1-0.3,0.3v11.9c0.1,1.7,1.5,3.2,3.2,3.2h3.1c1.1,0,2-0.6,2.3-1.4
			c0.4,0.8,1.2,1.4,2.3,1.4h3.1c1.7,0,3.2-1.4,3.2-3.2V14.2C150.9,14.1,150.8,13.9,150.6,13.9z"/>
		<g>
			<path class="st1" d="M177.8,25.2H176c-0.1,0-0.3,0.1-0.3,0.3V26c0,0.6-0.5,0.9-1,0.9h-2.8c-0.6,0-1-0.5-1-1v-2.3h6.9
				c0.1,0,0.3-0.1,0.3-0.3v-9.8c0-0.2-0.1-0.3-0.3-0.3h-2.6v-3h2.6c0.1,0,0.3-0.1,0.3-0.3V8c0-0.1-0.1-0.3-0.3-0.3h-6.6h0l0,0
				c-1.4,0-2.6,0.9-2.6,2.4v1.5c0,0.1,0.1,0.3,0.3,0.3h1.8c0.1,0,0.3-0.1,0.3-0.3V11c0-0.7,0.5-0.9,1-0.9h1v2.9h-4.1
				c-0.2,0-0.3,0.1-0.3,0.3v13.2c0,1.4,1.2,2.7,2.7,2.7h4.2c1.4,0,2.7-0.9,2.7-2.4v-1.4C178.1,25.3,178,25.2,177.8,25.2z
				 M170.8,15.6h4.9v1.6h-4.9V15.6z M170.8,19.7h4.9v1.4h-4.9V19.7z"/>
			<path class="st1" d="M191,28.8l-2.7-3.5c0-3.2,0-11.3,0-11.3c0-0.1-0.1-0.3-0.3-0.3H182v-2.5c0-0.6,0.5-1,1.1-1h5.4
				c0.1,0,0.3-0.1,0.3-0.3V8c0-0.1-0.1-0.3-0.3-0.3h-6.2c-1.4,0-2.7,1.2-2.7,2.2v18.6c0,0.6,0.1,0.7,0.3,0.7h1.7
				c0.1,0,0.3-0.1,0.3-0.3v-8l3.9,4.9v0.2c0,0.5-0.4,0.7-0.9,0.8h-1.1c-0.1,0-0.3,0.1-0.3,0.3v1.9c0,0.1,0.1,0.3,0.3,0.3h1.7
				c0.9,0,1.7-0.4,2.2-1l0.7,0.9c0.1,0.1,0.2,0.2,0.3,0.2h2.1C191,29.2,191.1,29,191,28.8z M182,16.2h3.9v0.7v5v0.5l-3.9-5V16.2z"/>
		</g>
	</g>
	<g>
		<path class="st0" d="M21.5,26.1c2.4,0,3.2-2.5,5.4-2.6c3.1,0,3.9,3.8,8,3.8c3.2,0,7-2.6,7-8.4c-0.1-7.7-5.4-15-10.6-15
			c-2.7,0.1-4.2,1.1-5.6,2.2c-1.3,0.9-2.6,1.6-4.3,1.6l0,0l0,0l0,0l0,0c-1.7,0-3-0.7-4.3-1.6c-1.4-1-2.8-2.1-5.5-2.1
			C6.3,3.9,1,11.3,1,19c0,5.8,3.9,8.3,7,8.3c4.3,0,4.9-3.8,8-3.8C18.2,23.6,19,26.1,21.5,26.1L21.5,26.1z"/>
		<path class="st1" d="M27.7,28.3L21.5,30c-0.1,0-0.2,0-0.3,0l-6.2-1.7c-0.6-0.2-1.1,0.6-0.6,1.1l6.6,6.6c0.3,0.3,0.7,0.3,0.9,0
			l6.6-6.6C28.8,28.9,28.3,28.1,27.7,28.3z"/>
	</g>
</g>
<g>
	<g>
		<g>
			<path class="st0" d="M177.9,508.6h-10.8c-4.4,0-8,3.5-8,8v23c0,4.4,3.5,8,8,8h10.8c4.4,0,8-3.5,8-8v-23
				C185.8,512.2,182.4,508.6,177.9,508.6z M178.5,537.3c0,1.8-1.4,3.2-3.2,3.2h-5.6c-1.8,0-3.2-1.4-3.2-3.2v-18.6
				c0-1.8,1.4-3.2,3.2-3.2h5.6c1.8,0,3.2,1.4,3.2,3.2V537.3z"/>
		</g>
	</g>
	<g>
		<g>
			<path class="st0" d="M52.2,508.6H41.5c-4.4,0-8,3.5-8,8v23c0,4.4,3.5,8,8,8h17.8c0.5,0,0.8-0.4,0.8-0.8v-30.3
				C60.2,512.2,56.6,508.6,52.2,508.6z M49.6,540.5h-5.6c-1.8,0-3.2-1.4-3.2-3.2v-18.6c0-1.8,1.4-3.2,3.2-3.2h5.6
				c1.8,0,3.2,1.4,3.2,3.2v18.6C52.8,539.1,51.3,540.5,49.6,540.5z"/>
		</g>
	</g>
	<g>
		<g>
			<path class="st0" d="M151,495.4h-5.7c-0.5,0-0.8,0.4-0.8,0.8v12.5c-0.2,0-11.3,0-11.3,0c-4.4,0-8,3.5-8,8v23c0,4.4,3.5,8,8,8H151
				c0.5,0,0.8-0.4,0.8-0.8v-50.7C151.9,495.6,151.6,495.4,151,495.4z M141.4,540.5h-5.6c-1.8,0-3.2-1.4-3.2-3.2v-18.6
				c0-1.8,1.4-3.2,3.2-3.2h5.6c1.7,0,3.1,1.4,3.2,3.1v18.6C144.6,539.1,143.2,540.5,141.4,540.5z"/>
		</g>
	</g>
	<path class="st0" d="M245.2,547.4h5.7c0.5,0,0.8-0.4,0.8-0.8v-27.7c0-1.8,1.4-3.2,3.2-3.2h5.6c1.8,0,3.2,1.4,3.2,3.2v27.7
		c0,0.5,0.4,0.8,0.8,0.8h5.7c0.5,0,0.8-0.4,0.8-0.8v-30c-0.2-4.4-3.8-8-8.2-8H245c-0.4,0-0.8,0.4-0.8,0.8v37.1
		C244.4,546.9,244.6,547.4,245.2,547.4z"/>
	<g>
		<path class="st0" d="M18.2,508.6h-8c-2.7,0-5,1.7-5.8,3.5c-0.8-1.9-3.2-3.5-5.8-3.5h-15c-0.5,0-0.8,0.4-0.8,0.8v37.1
			c0,0.5,0.4,0.8,0.8,0.8h5.7c0.5,0,0.8-0.4,0.8-0.8v-27.7c0-1.8,1.5-3.2,3.3-3.2h4.5c1.7,0,3.1,1.4,3.2,3.1v27.9
			c0,0.5,0.4,0.8,0.8,0.8l0,0h5.2l0,0c0.6,0,0.8-0.4,0.8-0.8v-27.9c0.1-1.7,1.5-3.1,3.2-3.1h4.6c1.8,0,3.2,1.4,3.2,3.2v27.7
			c0,0.5,0.4,0.8,0.8,0.8h5.7c0.5,0,0.8-0.4,0.8-0.8v-30C26.3,512.2,22.7,508.6,18.2,508.6z"/>
	</g>
	<path class="st0" d="M86,508.6H68.8c-0.5,0-0.8,0.4-0.8,0.8v37.1c0,0.5,0.4,0.8,0.8,0.8h5.7c0.5,0,0.8-0.4,0.8-0.8v-27.7
		c0-1.8,1.5-3.2,3.3-3.2h7.7c0.5,0,0.8-0.4,0.8-0.8v-5.3C87.1,509,86.7,508.6,86,508.6z"/>
	<path class="st0" d="M112.3,527.3c3.5-1.1,6.1-4.5,6.1-8.3v-9.6c0-0.5-0.4-0.8-0.8-0.8H112c-0.5,0-0.8,0.4-0.8,0.8v7.3
		c0,2.2-1.8,4-4,4h-7.8v-24.5c0-0.5-0.4-0.8-0.8-0.8h-5.7c-0.5,0-0.8,0.4-0.8,0.8v50.2c0,0.5,0.4,0.8,0.8,0.8h5.7
		c0.5,0,0.8-0.4,0.8-0.8v-18.7h5.8l6.1,18.7c0.1,0.5,0.4,0.8,0.8,0.8h5.6c0.6,0,0.9-0.5,0.9-0.9L112.3,527.3z"/>
	<path class="st0" d="M235.9,508.6h-5.8c-0.5,0-0.8,0.4-0.8,0.8v27.9c0,1.8-1.4,3.2-3.2,3.2h-4.6c-1.8,0-3.2-1.4-3.2-3.2v-27.9
		c0-0.5-0.4-0.8-0.8-0.8h-5.1c-0.5,0-0.8,0.4-0.8,0.8v27.9c0,1.8-1.4,3.2-3.2,3.2h-4.7c-1.8,0-3.2-1.4-3.2-3.2v-27.9
		c0-0.5-0.4-0.8-0.8-0.8h-5.7c-0.5,0-0.8,0.4-0.8,0.8v30.3c0.2,4.4,3.8,8,8.2,8h7.9c2.8,0,5-1.5,5.8-3.5c0.9,2.1,3.1,3.5,5.8,3.5
		h7.9c4.4,0,8-3.5,8-8v-30.3C236.7,509,236.4,508.6,235.9,508.6z"/>
	<g>
		<path class="st1" d="M304.9,537.1h-4.5c-0.4,0-0.8,0.4-0.8,0.8v1.4c0,1.5-1.2,2.2-2.6,2.2h-7.1c-1.5,0-2.6-1.2-2.6-2.6v-5.8h17.5
			c0.4,0,0.8-0.4,0.8-0.8v-24.9c0-0.5-0.4-0.8-0.8-0.8h-6.5V499h6.5c0.4,0,0.8-0.4,0.8-0.8v-4.6c0-0.4-0.4-0.8-0.8-0.8H288h-0.1l0,0
			c-3.7,0-6.6,2.4-6.6,6.1v3.8c0,0.4,0.4,0.8,0.8,0.8h4.5c0.4,0,0.8-0.4,0.8-0.8v-1.4c0-1.9,1.2-2.2,2.6-2.2h2.6v7.4h-10.3
			c-0.6,0-0.8,0.4-0.8,0.8v33.6c0,3.7,3,6.7,6.7,6.7H299c3.7,0,6.7-2.4,6.7-6.1v-3.7C305.6,537.6,305.4,537.1,304.9,537.1z
			 M287.2,513h12.5v4h-12.5V513z M287.2,523.2h12.5v3.7h-12.5V523.2z"/>
		<path class="st1" d="M338.2,546.4l-6.9-8.9c0-8.2,0-28.7,0-28.7c0-0.4-0.4-0.8-0.8-0.8h-15v-6.4c0-1.5,1.2-2.6,2.7-2.6h13.7
			c0.4,0,0.8-0.4,0.8-0.8v-4.6c0-0.4-0.4-0.8-0.8-0.8h-15.7c-3.7,0-6.7,3-6.7,5.6v47.2c0,1.4,0.4,1.8,0.8,1.8h4.4
			c0.4,0,0.8-0.4,0.8-0.8v-20.2l9.9,12.4v0.5c0,1.3-0.9,1.9-2.2,2h-2.8c-0.4,0-0.8,0.4-0.8,0.8v4.7c0,0.4,0.4,0.8,0.8,0.8h4.3
			c2.4,0,4.3-0.9,5.6-2.6l1.7,2.2c0.2,0.4,0.5,0.5,0.8,0.5h5.2C338.2,547.4,338.4,546.8,338.2,546.4z M315.5,514.3h9.9v1.8v12.8v1.2
			l-9.9-12.6V514.3z"/>
	</g>
</g>
<g>
	<path class="st0" d="M-91.4,539.6c6.1,0,8.2-6.3,13.6-6.5c7.9,0,9.8,9.5,20.4,9.5c8,0,17.8-6.5,17.8-21.4
		c-0.1-19.5-13.6-38.1-26.8-38.1c-6.9,0.1-10.6,2.8-14.3,5.6c-3.2,2.2-6.5,4-10.9,4l0,0l0,0l0,0l0,0c-4.3,0-7.6-1.7-10.9-4
		c-3.5-2.6-7.2-5.4-14-5.4c-13.4-0.1-26.8,18.6-26.8,38.1c0,14.7,9.8,21.1,17.8,21.1c10.8,0,12.5-9.5,20.4-9.5
		C-99.7,533.2-97.6,539.6-91.4,539.6L-91.4,539.6z"/>
	<path class="st1" d="M-75.5,545.1l-15.8,4.3c-0.2,0-0.6,0-0.8,0l-15.8-4.3c-1.6-0.5-2.7,1.5-1.6,2.7l16.6,16.6
		c0.7,0.7,1.7,0.7,2.3,0l16.6-16.6C-72.8,546.6-74,544.6-75.5,545.1z"/>
</g>
</svg>
