<?xml version="1.0" encoding="utf-8"?>
<!-- Generator: Adobe Illustrator 25.3.1, SVG Export Plug-In . SVG Version: 6.00 Build 0)  -->
<svg version="1.1" id="レイヤー_1" xmlns="http://www.w3.org/2000/svg" xmlns:xlink="http://www.w3.org/1999/xlink" x="0px"
	 y="0px" viewBox="0 0 100 100" style="enable-background:new 0 0 100 100;" xml:space="preserve">
<style type="text/css">
	.st0{fill:#A1CCB0;}
	.st1{fill:#D0CFCF;}
	.st2{fill:#F8CDCE;}
	.st3{fill:#E0262C;}
	.st4{fill:none;stroke:#F8CDCE;stroke-width:1.5;stroke-miterlimit:10;}
	.st5{fill:#FFFFFF;}
	.st6{fill:#FCFAF2;}
	.st7{fill:#005CAF;}
	.st8{fill:#C1C1C1;}
	.st9{fill:none;stroke:#C1C1C1;stroke-width:1.5;stroke-miterlimit:10;}
	.st10{fill:#E1A679;}
	.st11{fill:#FEDFE1;}
</style>
<rect x="-0.01" y="-0.01" class="st0" width="100" height="100"/>
<rect x="-297.55" y="54.94" class="st1" width="136.78" height="136.78"/>
<circle class="st2" cx="-283.24" cy="-35.53" r="51.7"/>
<path class="st3" d="M-243.43-20.35l-23.74-29.34h-32.15l-23.74,29.34c-0.72,0.9-0.09,2.23,1.06,2.23h77.49
	C-243.34-18.12-242.7-19.46-243.43-20.35z"/>
<path class="st3" d="M-254.97-51.34h-56.18c-0.47,0-0.85-0.38-0.85-0.85v-12.59c0-0.47,0.38-0.85,0.85-0.85h56.18
	c0.47,0,0.85,0.38,0.85,0.85v12.59C-254.12-51.72-254.5-51.34-254.97-51.34z"/>
<line class="st4" x1="-321.15" y1="-58.49" x2="-244.98" y2="-58.49"/>
<line class="st4" x1="-304.57" y1="-38.04" x2="-261.91" y2="-38.04"/>
<line class="st4" x1="-298.5" y1="-66.81" x2="-298.5" y2="-50.83"/>
<line class="st4" x1="-267.98" y1="-66.81" x2="-267.98" y2="-50.83"/>
<line class="st4" x1="-298.5" y1="-29.02" x2="-298.5" y2="-13.04"/>
<line class="st4" x1="-267.98" y1="-29.02" x2="-267.98" y2="-13.04"/>
<line class="st4" x1="-283.24" y1="-48.2" x2="-283.24" y2="-14.16"/>
<g>
	<g>
		<rect x="-243.92" y="91.93" class="st5" width="29.52" height="6.65"/>
		<path class="st5" d="M-213.4,98.58h13.36v-5.8c0-0.47-0.38-0.85-0.85-0.85h-12.51V98.58z"/>
		<rect x="-243.92" y="99.58" class="st5" width="29.52" height="6.65"/>
		<path class="st5" d="M-213.4,99.58v6.65h12.51c0.47,0,0.85-0.38,0.85-0.85v-5.8H-213.4z"/>
		<path class="st5" d="M-244.92,99.58h-13.01v5.8c0,0.47,0.38,0.85,0.85,0.85h12.15V99.58z"/>
		<path class="st5" d="M-244.92,98.58v-6.65h-12.15c-0.47,0-0.85,0.38-0.85,0.85v5.8H-244.92z"/>
	</g>
	<path class="st5" d="M-189.35,137.08l-23.97-29.63H-245l-23.97,29.63c-0.72,0.9-0.09,2.23,1.06,2.23h22.99v-12.49h1v12.49h14.26
		v-19.42h-20.83v-1h20.83v-9.97h1v9.97h20.83v1h-20.83v19.42h14.26v-12.49h1v12.49h22.99
		C-189.26,139.31-188.62,137.97-189.35,137.08z"/>
</g>
<g>
	<text transform="matrix(1 0 0 1 -308.0997 0.7394)"><tspan x="0" y="0" class="st3" style="font-family:'FuturaPT-BookObl'; font-size:18.0388px; letter-spacing:2;">I</tspan><tspan x="7.2" y="0" class="st3" style="font-family:'FuturaPT-BookObl'; font-size:18.0388px; letter-spacing:1;">NA</tspan><tspan x="33.71" y="0" class="st3" style="font-family:'FuturaPT-BookObl'; font-size:18.0388px; letter-spacing:2;">R</tspan><tspan x="45.76" y="0" class="st3" style="font-family:'FuturaPT-BookObl'; font-size:18.0388px; letter-spacing:1;">I</tspan></text>
</g>
<circle class="st2" cx="-403.5" cy="-35.53" r="51.7"/>
<g>
	<rect x="-418.01" y="-57.74" class="st3" width="29.02" height="6.4"/>
	<path class="st3" d="M-387.49-59.24h13.11v-5.55c0-0.47-0.38-0.85-0.85-0.85h-12.26V-59.24z"/>
	<rect x="-418.01" y="-65.64" class="st3" width="29.02" height="6.4"/>
	<path class="st3" d="M-419.51-59.24v-6.4h-11.9c-0.47,0-0.85,0.38-0.85,0.85v5.55H-419.51z"/>
	<path class="st3" d="M-419.51-57.74h-12.76v5.55c0,0.47,0.38,0.85,0.85,0.85h11.9V-57.74z"/>
	<path class="st3" d="M-387.49-57.74v6.4h12.26c0.47,0,0.85-0.38,0.85-0.85v-5.55H-387.49z"/>
</g>
<path class="st3" d="M-363.69-20.35l-23.74-29.34h-32.15l-23.74,29.34c-0.72,0.9-0.09,2.23,1.06,2.23h22.74v-10.9h1.5v10.9h13.76
	v-19.17h-20.58v-1.5h20.58v-9.41h1.5v9.41h20.58v1.5h-20.58v19.17h13.76v-10.9h1.5v10.9h22.74
	C-363.61-18.12-362.97-19.46-363.69-20.35z"/>
<g>
	<text transform="matrix(1 0 0 1 -428.3654 0.7394)"><tspan x="0" y="0" class="st3" style="font-family:'FuturaPT-BookObl'; font-size:18.0388px; letter-spacing:2;">I</tspan><tspan x="7.2" y="0" class="st3" style="font-family:'FuturaPT-BookObl'; font-size:18.0388px; letter-spacing:1;">NA</tspan><tspan x="33.71" y="0" class="st3" style="font-family:'FuturaPT-BookObl'; font-size:18.0388px; letter-spacing:2;">R</tspan><tspan x="45.76" y="0" class="st3" style="font-family:'FuturaPT-BookObl'; font-size:18.0388px; letter-spacing:1;">I</tspan></text>
</g>
<g>
	<g>
		<path class="st5" d="M-251.63,146.55l-1.48,12.03h-1.33l1.48-12.03H-251.63z"/>
		<path class="st5" d="M-247.12,158.58l1.53-12.54l8.17,9.87l1.15-9.36h1.33l-1.55,12.57l-8.17-9.87l-1.14,9.32H-247.12z"/>
		<path class="st5" d="M-224.41,155.19h-5.12l-1.86,3.39h-1.51l7.09-12.61l3.84,12.61h-1.44L-224.41,155.19z M-224.77,153.92
			l-1.44-4.82l-2.63,4.82H-224.77z"/>
		<path class="st5" d="M-215.06,146.55c0.99,0,2.13,0.05,3.01,0.88c0.7,0.65,0.87,1.44,0.87,2.15c0,0.96-0.22,1.86-0.96,2.56
			c-0.65,0.63-1.64,0.99-2.53,1.06l3.16,5.38h-1.62l-3.01-5.27h-0.34l-0.65,5.27h-1.33l1.48-12.03H-215.06z M-216.34,152.12h0.85
			c0.56,0,1.57-0.04,2.24-0.63c0.36-0.33,0.7-0.92,0.7-1.71c0-0.92-0.45-1.41-0.81-1.62c-0.36-0.22-1.15-0.34-1.7-0.34h-0.76
			L-216.34,152.12z"/>
		<path class="st5" d="M-204.2,146.55l-1.48,12.03h-1.33l1.48-12.03H-204.2z"/>
	</g>
</g>
<g>
	<g>
		<rect x="41.25" y="35.79" class="st6" width="17.15" height="6.09"/>
		<path class="st6" d="M59.83,34.36h12.48v-5.28c0-0.45-0.36-0.81-0.81-0.81H59.83V34.36z"/>
		<rect x="41.25" y="28.27" class="st6" width="17.15" height="6.09"/>
		<path class="st6" d="M39.82,34.36v-6.09H28.49c-0.45,0-0.81,0.36-0.81,0.81v5.28H39.82z"/>
		<path class="st6" d="M39.82,35.79H27.68v5.28c0,0.45,0.36,0.81,0.81,0.81h11.33V35.79z"/>
		<path class="st6" d="M59.83,35.79v6.09H71.5c0.45,0,0.81-0.36,0.81-0.81v-5.28H59.83z"/>
	</g>
	<path class="st7" d="M82.09,69.6L65.29,43.44h-30.6L17.88,69.6c-0.6,0.96-0.08,2.12,1.01,2.12h16.74V61.34h1.43v10.38h12.21V54.36
		H32.36v-1.43h16.92v-8.06h1.43v8.06h16.92v1.43H50.7v17.36h12.21V61.34h1.43v10.38h16.75C82.18,71.72,82.74,70.57,82.09,69.6z"/>
</g>
<rect x="877.28" y="-91.73" class="st8" width="283.46" height="283.46"/>
<g>
	<g>
		<path class="st5" d="M348.88,98.71l-3.06,24.93h-2.77l3.07-24.93H348.88z"/>
		<path class="st5" d="M358.23,123.64l3.18-25.98l16.93,20.45l2.39-19.4h2.76l-3.21,26.05l-16.93-20.44l-2.36,19.32H358.23z"/>
		<path class="st5" d="M405.29,116.62h-10.61l-3.85,7.03h-3.14l14.69-26.13l7.96,26.13h-2.99L405.29,116.62z M404.54,114l-2.99-9.98
			l-5.46,9.98H404.54z"/>
		<path class="st5" d="M424.66,98.71c2.06,0,4.41,0.11,6.24,1.83c1.46,1.35,1.8,2.99,1.8,4.45c0,1.98-0.45,3.85-1.98,5.31
			c-1.35,1.31-3.4,2.05-5.23,2.2l6.54,11.14h-3.37l-6.24-10.91h-0.71l-1.35,10.91h-2.76l3.06-24.93H424.66z M422,110.26h1.76
			c1.16,0,3.25-0.07,4.63-1.31c0.75-0.67,1.46-1.91,1.46-3.55c0-1.91-0.93-2.91-1.68-3.36c-0.75-0.45-2.39-0.71-3.51-0.71h-1.57
			L422,110.26z"/>
		<path class="st5" d="M447.16,98.71l-3.07,24.93h-2.76l3.06-24.93H447.16z"/>
	</g>
</g>
<g>
	<rect x="365.43" y="1.26" class="st5" width="59.96" height="13.22"/>
	<path class="st5" d="M428.49-1.84h27.09V-13.3c0-0.97-0.79-1.76-1.76-1.76h-25.33V-1.84z"/>
	<rect x="365.43" y="-15.07" class="st5" width="59.96" height="13.22"/>
	<path class="st5" d="M362.33-1.84v-13.22h-24.59c-0.97,0-1.76,0.79-1.76,1.76v11.46H362.33z"/>
	<path class="st5" d="M362.33,1.26h-26.36v11.46c0,0.97,0.79,1.76,1.76,1.76h24.59V1.26z"/>
	<path class="st5" d="M428.49,1.26v13.22h25.33c0.97,0,1.76-0.79,1.76-1.76V1.26H428.49z"/>
</g>
<path class="st5" d="M477.67,78.5l-49.05-60.63H362.2L313.15,78.5c-1.5,1.85-0.18,4.61,2.2,4.61h46.98V60.58h3.1v22.53h28.43V43.5
	h-42.52v-3.1h42.52V20.97h3.1V40.4h42.52v3.1h-42.52v39.61h28.43V60.58h3.1v22.53h46.98C477.85,83.11,479.16,80.35,477.67,78.5z"/>
<rect x="518.06" y="-91.73" class="st8" width="283.46" height="283.46"/>
<g>
	<g>
		<path class="st5" d="M613.23,98.71l-3.06,24.93h-2.77l3.07-24.93H613.23z"/>
		<path class="st5" d="M622.58,123.64l3.18-25.98l16.93,20.45l2.39-19.4h2.76l-3.21,26.05l-16.93-20.44l-2.36,19.32H622.58z"/>
		<path class="st5" d="M669.64,116.62h-10.61l-3.85,7.03h-3.14l14.69-26.13l7.96,26.13h-2.99L669.64,116.62z M668.89,114l-2.99-9.98
			l-5.46,9.98H668.89z"/>
		<path class="st5" d="M689.01,98.71c2.06,0,4.41,0.11,6.24,1.83c1.46,1.35,1.8,2.99,1.8,4.45c0,1.98-0.45,3.85-1.98,5.31
			c-1.35,1.31-3.4,2.05-5.23,2.2l6.54,11.14H693l-6.24-10.91h-0.71l-1.35,10.91h-2.76l3.06-24.93H689.01z M686.35,110.26h1.76
			c1.16,0,3.25-0.07,4.63-1.31c0.75-0.67,1.46-1.91,1.46-3.55c0-1.91-0.93-2.91-1.68-3.36c-0.75-0.45-2.39-0.71-3.51-0.71h-1.57
			L686.35,110.26z"/>
		<path class="st5" d="M711.51,98.71l-3.07,24.93h-2.76l3.06-24.93H711.51z"/>
	</g>
</g>
<g>
	<rect x="629.78" y="1.26" class="st5" width="59.96" height="13.22"/>
	<path class="st5" d="M692.84-1.84h27.09V-13.3c0-0.97-0.79-1.76-1.76-1.76h-25.33V-1.84z"/>
	<rect x="629.78" y="-15.07" class="st5" width="59.96" height="13.22"/>
	<path class="st5" d="M626.68-1.84v-13.22h-24.59c-0.97,0-1.76,0.79-1.76,1.76v11.46H626.68z"/>
	<path class="st5" d="M626.68,1.26h-26.36v11.46c0,0.97,0.79,1.76,1.76,1.76h24.59V1.26z"/>
	<path class="st5" d="M692.84,1.26v13.22h25.33c0.97,0,1.76-0.79,1.76-1.76V1.26H692.84z"/>
</g>
<path class="st5" d="M742.02,78.5l-49.05-60.63h-66.43L577.5,78.5c-1.5,1.85-0.18,4.61,2.2,4.61h46.98V60.58h3.1v22.53h28.43V43.5
	h-42.52v-3.1h42.52V20.97h3.1V40.4h42.52v3.1h-42.52v39.61h28.43V60.58h3.1v22.53h46.98C742.2,83.11,743.51,80.35,742.02,78.5z"/>
<circle class="st8" cx="-162.97" cy="-35.53" r="51.7"/>
<path class="st5" d="M-124.38-19.89l-21.82-30.63h-33.56l-21.82,30.63c-0.76,0.93-0.09,2.33,1.11,2.33h74.97
	C-124.29-17.56-123.63-18.96-124.38-19.89z"/>
<path class="st5" d="M-137.02-52.66h-51.56c-0.47,0-0.85-0.38-0.85-0.85v-13.22c0-0.47,0.38-0.85,0.85-0.85h51.56
	c0.47,0,0.85,0.38,0.85,0.85v13.22C-136.17-53.04-136.55-52.66-137.02-52.66z"/>
<line class="st9" x1="-202.55" y1="-60.12" x2="-123.04" y2="-60.12"/>
<line class="st9" x1="-195.11" y1="-38.36" x2="-127.72" y2="-38.36"/>
<line class="st9" x1="-174.47" y1="-68.81" x2="-174.47" y2="-52.13"/>
<line class="st9" x1="-151.49" y1="-68.81" x2="-151.49" y2="-52.13"/>
<line class="st9" x1="-178.91" y1="-28.94" x2="-178.91" y2="-12.26"/>
<line class="st9" x1="-147.05" y1="-28.94" x2="-147.05" y2="-12.26"/>
<line class="st9" x1="-162.98" y1="-51.7" x2="-162.98" y2="-13.43"/>
<g>
	<text transform="matrix(1 0 0 1 -178.9781 -0.5657)"><tspan x="0" y="0" class="st5" style="font-family:'FuturaPT-Medium'; font-size:11.7524px; letter-spacing:1;">I</tspan><tspan x="4.69" y="0" class="st5" style="font-family:'FuturaPT-Medium'; font-size:11.7524px; letter-spacing:1;">NA</tspan><tspan x="21.96" y="0" class="st5" style="font-family:'FuturaPT-Medium'; font-size:11.7524px; letter-spacing:1;">R</tspan><tspan x="29.82" y="0" class="st5" style="font-family:'FuturaPT-Medium'; font-size:11.7524px; letter-spacing:1;">I</tspan></text>
</g>
<circle class="st7" cx="257.19" cy="-81.2" r="15.57"/>
<circle class="st10" cx="257.19" cy="-44.9" r="15.57"/>
<circle class="st6" cx="257.19" cy="-3.13" r="15.57"/>
<circle class="st11" cx="257.19" cy="38.64" r="15.57"/>
</svg>
